<?xml version="1.0" encoding="utf-8"?>
<svg xmlns="http://www.w3.org/2000/svg" fill="none" height="1080" viewBox="0 0 1920 1080" width="1920">
<rect fill="#F3CCC4" height="1080" width="1920"/>
<path d="M744.049 360.975L723.582 334.926H471.467L451 360.975H744.049Z" fill="#E0BBB6"/>
<path d="M818.47 456.802L798.933 431.684H545.888L526.352 456.802H818.47Z" fill="#E0BBB6"/>
<path d="M893.826 553.56L873.359 527.512H620.314L600.777 553.56H893.826Z" fill="#E0BBB6"/>
<path d="M968.252 649.373L947.785 623.324H695.67L675.203 649.373H968.252Z" fill="#E0BBB6"/>
<path d="M770.094 719.152L749.627 745.201H1042.68L1022.21 719.152H770.094Z" fill="#E0BBB6"/>
<path d="M771.031 334L1023.15 660.54H1058.5L1272.47 378.655V716.359H1058.5L1079.9 744.268H1301.31V334H771.031ZM1040.82 637.282L827.78 361.909H1250.14L1040.82 637.282Z" fill="#E0BBB6"/>
</svg>